<?xml version="1.0" standalone="no"?>
<!DOCTYPE svg PUBLIC "-//W3C//DTD SVG 20010904//EN"
 "http://www.w3.org/TR/2001/REC-SVG-20010904/DTD/svg10.dtd">
<svg version="1.0" xmlns="http://www.w3.org/2000/svg"
 width="512.000000pt" height="512.000000pt" viewBox="0 0 512.000000 512.000000"
 preserveAspectRatio="xMidYMid meet">
<metadata>
Created by potrace 1.14, written by Peter Selinger 2001-2017
</metadata>
<g transform="translate(0.000000,512.000000) scale(0.100000,-0.100000)"
fill="#000000" stroke="none">
<path d="M1903 5106 c-121 -30 -252 -119 -318 -218 -16 -24 -31 -45 -33 -48
-2 -2 -218 -5 -480 -6 -461 0 -480 -1 -557 -23 -123 -34 -209 -84 -301 -176
-99 -98 -168 -217 -190 -330 -2 -11 -7 -33 -10 -49 -8 -36 -8 -3615 0 -3670
19 -132 76 -251 181 -374 36 -42 138 -114 210 -148 124 -57 166 -62 618 -63
446 -2 449 -1 460 57 6 30 -15 77 -38 86 -9 3 -197 6 -418 6 -319 1 -415 4
-459 15 -208 55 -355 206 -398 410 -10 47 -13 346 -13 1360 0 715 3 1319 6
1342 16 111 74 222 157 303 63 62 128 101 222 131 61 20 82 21 733 21 739 1
735 1 854 -62 107 -58 144 -99 318 -364 91 -138 186 -275 210 -304 75 -88 196
-165 323 -205 63 -21 88 -21 780 -24 459 -2 736 -7 775 -14 198 -35 374 -210
416 -414 18 -90 18 -1698 -1 -1775 -40 -167 -152 -306 -300 -371 -112 -50 -69
-49 -1558 -49 -1406 0 -1422 0 -1444 -34 -10 -14 -10 -68 0 -82 22 -34 38 -34
1447 -34 1558 0 1478 -3 1630 70 142 69 248 175 316 314 75 153 70 9 67 2066
l-3 1845 -27 73 c-43 115 -85 181 -172 267 -82 81 -174 139 -262 165 -34 10
-48 23 -83 76 -74 112 -188 193 -321 228 -76 20 -2255 22 -2337 2z m2308 -150
c135 -41 226 -126 268 -253 17 -52 21 -87 21 -207 0 -137 1 -146 23 -172 29
-33 69 -35 103 -4 23 23 24 27 24 171 l0 148 48 -27 c128 -71 237 -232 258
-380 5 -33 13 -1562 8 -1562 0 0 -26 25 -57 55 -63 62 -139 112 -209 141 l-48
19 0 612 c0 607 0 612 -21 632 -35 32 -69 33 -101 1 l-28 -28 0 -590 0 -590
-295 1 -295 0 0 51 c-1 28 -2 263 -3 521 -3 461 -3 471 -26 535 -44 127 -118
222 -226 292 -61 40 -167 78 -233 83 -20 2 -431 4 -912 4 l-875 1 2 116 c2
136 19 201 72 277 47 66 118 120 195 146 60 20 80 20 1161 20 914 1 1108 -2
1146 -13z m-2720 -321 c-2 -27 -4 -89 -4 -137 l0 -88 -111 -1 c-140 -1 -175
-5 -256 -29 -162 -48 -301 -188 -351 -352 -11 -36 -21 -80 -23 -97 -3 -40 -9
-45 -59 -48 -195 -9 -327 -62 -463 -186 -35 -32 -64 -55 -65 -50 -7 70 -1 525
7 584 33 229 220 417 444 446 25 3 46 6 47 7 1 0 189 1 419 1 l418 0 -3 -50z
m2041 -417 c90 -45 147 -103 191 -198 l31 -65 1 -517 2 -516 -346 2 c-330 2
-349 3 -411 25 -74 26 -158 78 -212 132 -20 20 -115 155 -211 301 -183 278
-233 335 -349 406 -49 29 -146 69 -190 77 -79 16 -178 19 -628 19 l-515 1 3
40 c6 99 110 243 209 291 88 42 82 42 1238 40 l1110 -1 77 -37z"/>
<path d="M3433 3868 c-12 -15 -50 -85 -141 -258 -36 -69 -84 -160 -107 -202
l-41 -78 -26 28 c-13 15 -59 70 -101 123 -42 53 -84 100 -93 103 -31 12 -61 6
-82 -17 -26 -28 -28 -64 -5 -97 36 -52 258 -325 273 -335 48 -32 93 -16 123
43 11 23 61 116 168 317 167 312 171 322 131 368 -18 20 -85 23 -99 5z"/>
<path d="M616 2438 c-23 -21 -30 -42 -27 -75 0 -7 11 -21 23 -33 21 -20 31
-20 690 -20 655 0 668 0 688 20 31 31 30 72 -2 107 l-21 22 -663 1 -663 0 -25
-22z"/>
<path d="M610 2160 c-32 -32 -30 -75 6 -107 l25 -23 652 0 c359 0 662 3 674 6
32 9 54 60 41 96 -6 15 -18 33 -28 38 -12 6 -269 10 -684 10 -653 0 -666 0
-686 -20z"/>
</g>
</svg>
